<?xml version="1.0" encoding="utf-8"?>
<!-- Generator: Adobe Illustrator 24.0.1, SVG Export Plug-In . SVG Version: 6.00 Build 0)  -->
<svg version="1.1" id="Camada_1" xmlns="http://www.w3.org/2000/svg" xmlns:xlink="http://www.w3.org/1999/xlink" x="0px" y="0px"
	 viewBox="0 0 566.9 283.5" style="enable-background:new 0 0 566.9 283.5;" xml:space="preserve">
<style type="text/css">
	.st0{display:none;}
	.st1{display:inline;}
	.st2{fill:#FFFFFF;}
	.st3{fill:#18223C;}
	.st4{fill:#1A233D;}
	.st5{fill:#1B243E;}
	.st6{fill:#1C243E;}
	.st7{fill:#19233C;}
	.st8{fill:#19223C;}
	.st9{display:none;fill:#FFFFFF;}
</style>
<g id="Camada_2_1_" class="st0">
	<g class="st1">
		<g>
			<path class="st2" d="M-0.7-6.6c0-144.2,0-288.7,0-433c0-2.8,0.5-3.8,3.6-3.8c288.7,0,577.8,0,866.5,0c3.1,0,3.6,0.8,3.6,3.6
				c0,288.7,0,577.5,0,866.5c0,2.6-0.3,3.6-3.3,3.6c-289,0-578,0-866.8,0c-2.8,0-3.3-0.5-3.3-3.3C-0.7,282.4-0.7,137.9-0.7-6.6z
				 M443.6,108.8L443.6,108.8c1.8-0.3,3.6-0.3,5.1-0.3c31.7,0,63.3,0,95,0c32.2,0,64.3,0,96.5,0c27.3,0,54.4,0,81.7,0
				c3.8,0,4.6-1.3,4.6-4.6c-0.3-4.6-0.3-9.4,0-14c0.3-4.1-0.8-5.1-4.9-5.1c-185.1,0-370.2,0-555.3,0c-0.8,0-1.3,0-2,0
				c-2.3-0.3-3.1,0.5-3.1,2.8c0.3,5.6,0.3,11.2,0,16.9c-0.3,3.3,0.8,3.8,4.1,3.8c32.9,0,65.9,0,98.8,0c28.6,0,57.4,0.3,86,0.3
				C381,109,412.4,108.8,443.6,108.8z M235-15c0,27.3,0,54.6,0,82c0,1.8-0.8,4.1,2.8,3.8c14.6-0.3,29.1,0.3,43.7-0.3
				c18.4-0.5,30.4-12.3,30.6-30.4c0.3-36.5,0.3-73,0-109.5c0-9.2-2.6-17.9-10.2-24c-6.9-5.9-15.3-7.4-24-7.4
				c-13-0.3-25.8,0-38.8-0.3c-3.3,0-3.8,1-3.8,4.1C235-69.4,235-42.4,235-15z M650.9-15.6c0,27.6,0,54.9,0,82.5c0,3.3,1,4.1,4.1,3.8
				c8.2-0.3,16.3-0.3,24.5,0c2.8,0,3.6-0.8,3.6-3.6c0-19.4,0-39.1,0-58.5c0-8.4,0-8.4,8.7-8.4c3.1,0,4.1,0.8,4.1,3.8
				c-0.3,20.9,0,42.1-0.3,63.1c0,2.6,0.5,3.8,3.6,3.8c8.7-0.3,17.1-0.3,25.8,0c2.6,0,3.1-0.8,3.1-3.3c0-55.1,0-110,0-165.2
				c0-2.6-0.5-3.3-3.1-3.1c-8.4,0.3-16.9,0.3-25.5,0c-3.1,0-3.8,0.8-3.8,3.8c0.3,19.4,0,38.8,0,58.2c0,8.4,0,8.2-8.7,8.4
				c-3.3,0-3.8-0.8-3.8-4.1c0.3-20.7,0-41.1,0.3-61.8c0-3.6-0.5-4.9-4.6-4.9c-7.9,0.3-15.8,0.3-23.7,0c-3.3,0-3.8,1-3.8,4.1
				C650.9-69.7,650.9-42.6,650.9-15.6z M318.7-27.8c0,22.7,0,45.4,0,68.2c0,14.8,9.4,27.1,23.5,31.1c6.4,1.8,13,1.3,19.7,1.3
				c19.7,0,33.7-13.3,34-32.9c0.3-46,0-91.9,0.3-137.6c0-2.6-0.8-3.1-3.3-3.1c-8.4,0.3-16.6,0.3-25,0c-3.6,0-4.1,1-4.1,4.3
				c0,42.9,0,85.5,0,128.4c0,1.5,0,3.3-0.3,4.9c-0.5,3.6-2.8,5.4-6.4,5.4c-4.1,0-6.1-2.6-6.1-7.7c0-43.7,0-87.3,0-130.7
				c0-3.3-0.5-4.3-4.1-4.3c-8.2,0.3-16.1,0.3-24.3,0c-3.3,0-3.8,1-3.8,4.1C318.7-73.8,318.7-50.8,318.7-27.8z M567.4-15.3
				L567.4-15.3c0,19.4-0.3,39.1,0.3,58.5c0.3,16.1,14.3,29.4,30.4,29.6c5.1,0,10.2,0,15.3,0c16.1-0.3,30.4-14.3,30.9-30.4
				c0.3-14.6,0-29.1,0.3-43.7c0-2-0.5-2.8-2.6-2.8c-8.9,0-17.9,0.3-26.6,0c-2.6,0-3.1,0.8-3.1,3.3c0,11.7,0,23.7,0,35.5
				c0,2.8-0.8,5.4-3.6,6.6c-4.9,2.6-9.4-1-9.4-7.4c0-32.9,0-65.6,0-98.5c0-5.4,2.3-7.9,6.4-8.2c4.1,0,6.4,2.6,6.4,7.9
				c0,9.2,0,18.4,0,27.6c0,2,0.3,2.8,2.6,2.8c8.9,0,18.1,0,27.1,0c1.8,0,2.6-0.3,2.6-2.3c0-12,0.3-24-0.3-36
				c-0.8-15.8-12.8-28.1-28.6-30.1c-5.6-0.8-11.2-0.5-16.9-0.3c-19.1,0.5-31.9,16.3-31.4,33.4C567.7-51.3,567.4-33.4,567.4-15.3z
				 M163.8-15.6c0,27.6,0,54.9,0,82.5c0,2.3-0.3,4.1,3.3,4.1c19.4-0.3,39.1,0,58.5,0c2.3,0,2.8-0.8,2.8-3.1c0-8.2-0.3-16.3,0-24.5
				c0-2.6-0.8-3.3-3.1-3.1c-8.7,0.3-17.6,0-26.3,0c-2.6,0-3.3-0.5-3.1-3.1c0.3-11.2,0-22.7,0-34c0-2.3,0.5-3.1,2.8-2.8
				c6.4,0.3,13,0,19.4,0c1.8,0,2.8-0.3,2.8-2.6c-0.3-8.4,0-16.9,0-25.5c0-2-0.8-2.8-2.8-2.8c-6.4,0-13,0-19.4,0
				c-2.3,0-3.1-0.5-3.1-2.8c0-11.2,0.3-22.7,0-34c0-2.6,0.8-3.1,3.1-3.1c8.7,0.3,17.6,0,26.3,0c2.6,0,3.3-0.5,3.1-3.1
				c-0.3-7.9-0.3-15.8,0-23.7c0-3.1-0.8-3.8-3.8-3.8c-18.9,0.3-38,0.3-56.9,0c-3.3,0-4.1,1-4.1,4.1
				C163.8-69.7,163.8-42.6,163.8-15.6z M529.1,70.7c9.7,0,19.7,0,29.4,0c2.3,0,3.3-0.3,3.3-3.1c-0.3-8.2-0.3-16.3,0-24.5
				c0-2.6-0.5-3.3-3.1-3.1c-8.7,0.3-17.6,0-26.3,0c-2.3,0-3.3-0.5-3.1-3.1c0.3-11.2,0-22.7,0-34c0-2.3,0.5-3.1,2.8-2.8
				c6.4,0.3,13,0,19.4,0c1.8,0,2.8-0.3,2.8-2.6c-0.3-8.4,0-16.9,0-25.5c0-2-0.8-2.8-2.8-2.8c-6.4,0-13,0-19.4,0
				c-2.3,0-3.1-0.5-3.1-2.8c0-11.2,0.3-22.7,0-34c0-2.6,0.8-3.1,3.1-3.1c8.9,0.3,17.9,0,26.6,0c2,0,2.8-0.5,2.8-2.8
				c0-8.4,0-16.6,0-25c0-2.3-0.8-2.8-3.1-2.8c-19.4,0-39.1,0-58.5,0c-2.6,0-3.1,0.8-3.1,3.3c0,55.1,0,110,0,165.2
				c0,2.6,0.8,3.1,3.3,3.1C510.2,70.7,519.7,70.7,529.1,70.7z M437.2,0.3c0,22.2,0,44.4,0,66.6c0,3.3,1,4.1,4.1,3.8
				c5.4-0.3,10.5,0,15.8,0c4.1,0,9.2,1.8,11.5-0.8c2-2.3,0.5-7.4,0.5-11.2c0-41.4,0-82.7,0-123.8c0-3.8,0.5-5.4,4.6-4.9
				c4.6,0.5,9.2,0,13.8,0.3c2.3,0,3.3-0.3,3.3-3.1c-0.3-8.2-0.3-16.3,0-24.5c0-2-0.3-3.1-2.8-3.1c-23.2,0-46.2,0-69.4,0
				c-2.3,0-3.1,0.8-2.8,3.1c0,8.2,0.3,16.3,0,24.5c0,2.6,1,3.1,3.3,3.1c4.9-0.3,9.7,0.3,14.6,0c3.1-0.3,4.1,0.8,4.1,3.8
				C437.2-44.1,437.2-21.9,437.2,0.3z"/>
			<path class="st3" d="M443.6,108.8c-31.1,0-62.5,0-93.7,0c-28.6,0-57.4-0.3-86-0.3c-32.9,0-65.9,0-98.8,0c-3.1,0-4.1-0.8-4.1-3.8
				c0.3-5.6,0.3-11.2,0-16.9c0-2.3,0.8-3.1,3.1-2.8c0.8,0,1.3,0,2,0c185.1,0,370.2,0,555.3,0c4.1,0,5.1,1,4.9,5.1
				c-0.3,4.6-0.3,9.4,0,14c0.3,3.6-0.8,4.6-4.6,4.6c-27.3-0.3-54.4,0-81.7,0c-32.2,0-64.3,0-96.5,0c-31.7,0-63.3,0-95,0
				C447.2,108.8,445.4,108.8,443.6,108.8L443.6,108.8z"/>
			<path class="st4" d="M235-15c0-27.3,0-54.4,0-81.7c0-3.1,0.5-4.1,3.8-4.1c13,0.3,25.8,0,38.8,0.3c8.7,0,17.1,1.5,24,7.4
				c7.4,6.4,10.2,14.8,10.2,24c0.3,36.5,0.3,73,0,109.5c-0.3,18.1-12.3,29.6-30.6,30.4c-14.6,0.5-29.1,0-43.7,0.3
				c-3.6,0-2.8-2-2.8-3.8C235,39.6,235,12.3,235-15z M266.9-15c0,17.4,0,34.7,0,52.1c0,1-1,2.6,1.3,3.1c7.7,1.8,11.7-1.3,11.7-9.2
				c0-30.6,0-61,0-91.7c0-8.2-1.3-9.4-9.4-9.7c-2.8,0-3.6,0.5-3.6,3.6C266.9-49.5,266.9-32.4,266.9-15z"/>
			<path class="st5" d="M650.9-15.6c0-27.1,0-54.1,0-81.2c0-3.1,0.5-4.1,3.8-4.1c7.9,0.3,15.8,0.3,23.7,0c4.1-0.3,4.6,1.3,4.6,4.9
				c-0.3,20.7,0,41.1-0.3,61.8c0,3.1,0.8,4.1,3.8,4.1c8.7-0.3,8.7,0,8.7-8.4c0-19.4,0-38.8,0-58.2c0-3.1,0.8-3.8,3.8-3.8
				c8.4,0.3,16.9,0.3,25.5,0c2.6,0,3.1,0.8,3.1,3.1c0,55.1,0,110,0,165.2c0,2.3-0.5,3.3-3.1,3.3c-8.7-0.3-17.4-0.3-25.8,0
				c-3.1,0-3.6-1-3.6-3.8c0-20.9,0-42.1,0.3-63.1c0-3.3-0.8-4.1-4.1-3.8c-8.7,0.3-8.7,0-8.7,8.4c0,19.4,0,39.1,0,58.5
				c0,2.8-0.8,3.6-3.6,3.6c-8.2-0.3-16.3-0.3-24.5,0c-3.1,0-4.1-0.8-4.1-3.8C650.9,39.3,650.9,12,650.9-15.6z"/>
			<path class="st6" d="M318.7-27.8c0-23,0-46,0-68.9c0-3.1,0.5-4.1,3.8-4.1c8.2,0.3,16.1,0.3,24.3,0c3.6,0,4.1,1,4.1,4.3
				c0,43.7,0,87.3,0,130.7c0,5.1,2,7.7,6.1,7.7c3.6,0,5.9-1.5,6.4-5.4c0.3-1.5,0.3-3.3,0.3-4.9c0-42.9,0-85.5,0-128.4
				c0-3.3,0.5-4.3,4.1-4.3c8.4,0.3,16.6,0.3,25,0c2.3,0,3.3,0.5,3.3,3.1c0,46,0.3,91.9-0.3,137.6c0,19.7-14.3,32.9-34,32.9
				c-6.6,0-13.3,0.8-19.7-1.3c-14-4.1-23.5-16.3-23.5-31.1C318.7,17.9,318.7-4.8,318.7-27.8z"/>
			<path class="st7" d="M567.4-15.3c0-18.1,0.5-36,0-54.1c-0.5-17.1,12.3-32.9,31.4-33.4c5.6-0.3,11.2-0.3,16.9,0.3
				c15.8,1.8,27.8,14,28.6,30.1c0.5,12,0,24,0.3,36c0,2-1,2.3-2.6,2.3c-8.9,0-18.1,0-27.1,0c-2.3,0-2.6-0.8-2.6-2.8
				c0-9.2,0-18.4,0-27.6c0-5.4-2.3-7.9-6.4-7.9s-6.4,2.8-6.4,8.2c0,32.9,0,65.6,0,98.5c0,6.4,4.6,10,9.4,7.4
				c2.8-1.5,3.6-3.8,3.6-6.6c0-11.7,0-23.7,0-35.5c0-2.3,0.5-3.3,3.1-3.3c8.9,0.3,17.9,0.3,26.6,0c2.3,0,2.6,0.8,2.6,2.8
				c0,14.6,0.3,29.1-0.3,43.7c-0.3,16.1-14.6,30.1-30.9,30.4c-5.1,0-10.2,0-15.3,0c-16.1-0.3-30.1-13.5-30.4-29.6
				C567.1,23.8,567.4,4.1,567.4-15.3L567.4-15.3z"/>
			<path class="st5" d="M163.8-15.6c0-27.1,0-54.1,0-81.2c0-3.1,0.8-4.1,4.1-4.1c18.9,0.3,38,0.3,56.9,0c3.1,0,3.8,0.8,3.8,3.8
				c-0.3,7.9-0.3,15.8,0,23.7c0,2.6-0.8,3.1-3.1,3.1c-8.7-0.3-17.6,0-26.3,0c-2.3,0-3.3,0.5-3.1,3.1c0.3,11.2,0.3,22.7,0,34
				c0,2.3,0.8,2.8,3.1,2.8c6.4-0.3,13,0,19.4,0c2,0,2.8,0.5,2.8,2.8c0,8.4-0.3,16.9,0,25.5c0,2.3-1,2.6-2.8,2.6c-6.4,0-13,0-19.4,0
				c-2.3,0-2.8,0.8-2.8,2.8c0,11.2,0.3,22.7,0,34c0,2.6,0.8,3.1,3.1,3.1c8.7-0.3,17.6,0,26.3,0c2.6,0,3.3,0.8,3.1,3.1
				c-0.3,8.2,0,16.3,0,24.5c0,2.3-0.5,3.1-2.8,3.1c-19.4,0-39.1-0.3-58.5,0c-3.3,0-3.3-1.5-3.3-4.1C163.8,39.3,163.8,12,163.8-15.6z
				"/>
			<path class="st5" d="M529.1,70.7c-9.4,0-19.1,0-28.6,0c-2.3,0-3.3-0.5-3.3-3.1c0-55.1,0-110,0-165.2c0-2.3,0.5-3.3,3.1-3.3
				c19.4,0,39.1,0,58.5,0c2.3,0,3.1,0.5,3.1,2.8c-0.3,8.4,0,16.6,0,25c0,2-0.5,2.8-2.8,2.8c-8.9,0-17.9,0-26.6,0
				c-2.3,0-3.3,0.5-3.1,3.1c0.3,11.2,0.3,22.7,0,34c0,2.3,0.8,2.8,3.1,2.8c6.4-0.3,13,0,19.4,0c2,0,2.8,0.5,2.8,2.8
				c0,8.4-0.3,16.9,0,25.5c0,2.3-1,2.6-2.8,2.6c-6.4,0-13,0-19.4,0c-2.3,0-2.8,0.8-2.8,2.8c0,11.2,0.3,22.7,0,34
				c0,2.6,0.8,3.1,3.1,3.1c8.7-0.3,17.6,0,26.3,0c2.6,0,3.3,0.8,3.1,3.1c-0.3,8.2-0.3,16.3,0,24.5c0,2.8-1,3.1-3.3,3.1
				C548.8,70.7,539.1,70.7,529.1,70.7z"/>
			<path class="st8" d="M437.2,0.3c0-22.2,0-44.4,0-66.6c0-3.3-1-4.1-4.1-3.8c-4.9,0.3-9.7,0-14.6,0c-2.3,0-3.3-0.5-3.3-3.1
				c0.3-8.2,0.3-16.3,0-24.5c0-2.3,0.5-3.1,2.8-3.1c23.2,0,46.2,0,69.4,0c2.6,0,2.8,0.8,2.8,3.1c0,8.2-0.3,16.3,0,24.5
				c0,2.8-1,3.1-3.3,3.1c-4.6-0.3-9.2,0.3-13.8-0.3c-4.1-0.3-4.6,1.3-4.6,4.9c0.3,41.4,0,82.7,0,123.8c0,3.8,1.3,9.2-0.5,11.2
				c-2.3,2.6-7.7,0.8-11.5,0.8c-5.4,0.3-10.5-0.3-15.8,0c-3.1,0.3-4.1-0.5-4.1-3.8C437.4,44.7,437.2,22.5,437.2,0.3z"/>
			<path class="st2" d="M266.9-15c0-17.1,0-34.5,0-51.6c0-2.8,0.8-3.6,3.6-3.6c8.2,0.3,9.4,1.3,9.4,9.7c0,30.6,0,61,0,91.7
				c0,7.9-4.1,11-11.7,9.2c-2.3-0.5-1.3-2-1.3-3.1C266.9,19.7,266.9,2.3,266.9-15z"/>
		</g>
	</g>
</g>
<g id="Camada_2_2_">
	<g>
		<g>
			<path class="st9" d="M-149.9,141.5c-0.1-141.1-0.2-282.4-0.2-423.5c0-2.7,0.5-3.7,3.5-3.7c282.3-0.2,564.8-0.3,847.1-0.5
				c3,0,3.5,0.7,3.5,3.5c0.2,282.4,0.3,564.9,0.5,847.6c0,2.5-0.2,3.5-3.2,3.5c-282.5,0.2-565.1,0.3-847.4,0.5
				c-2.7,0-3.2-0.5-3.2-3.2C-149.7,424.2-149.8,282.8-149.9,141.5z M284.5,254.1L284.5,254.1c1.7-0.3,3.5-0.3,5-0.3
				c31,0,61.9,0,92.9-0.1c31.4,0,62.9,0,94.3-0.1c26.7,0,53.2,0,79.9,0c3.7,0,4.5-1.3,4.5-4.5c-0.3-4.5-0.3-9.2,0-13.7
				c0.2-4-0.8-5-4.7-5c-181,0.1-361.9,0.2-542.9,0.3c-0.7,0-1.2,0-2,0c-2.2-0.2-3,0.5-3,2.7c0.3,5.5,0.3,11,0,16.5
				c-0.2,3.2,0.8,3.7,4,3.7c32.2,0,64.4,0,96.6-0.1c28,0,56.2,0.2,84.1,0.2C223.3,254.4,254,254.1,284.5,254.1z M80.5,133.1
				c0,26.7,0,53.4,0,80.2c0,1.7-0.7,4,2.7,3.7c14.2-0.3,28.5,0.2,42.7-0.3c18-0.5,29.7-12,29.9-29.7c0.2-35.7,0.2-71.4-0.1-107.1
				c0-9-2.5-17.5-10-23.5c-6.7-5.7-15-7.2-23.5-7.2c-12.7-0.2-25.2,0-37.9-0.2c-3.2,0-3.7,1-3.7,4C80.5,79.9,80.5,106.4,80.5,133.1z
				 M487.1,132.4c0,27,0,53.7,0,80.7c0,3.2,1,4,4,3.7c8-0.3,16-0.3,24,0c2.7,0,3.5-0.8,3.5-3.5c0-19,0-38.2,0-57.2
				c0-8.2,0-8.2,8.5-8.2c3,0,4,0.7,4,3.7c-0.2,20.5,0,41.2-0.2,61.7c0,2.5,0.5,3.7,3.5,3.7c8.5-0.3,16.7-0.3,25.2,0
				c2.5,0,3-0.8,3-3.2c0-53.9-0.1-107.6-0.1-161.6c0-2.5-0.5-3.2-3-3c-8.2,0.3-16.5,0.3-25,0c-3,0-3.7,0.8-3.7,3.7
				c0.3,19,0,38,0,56.9c0,8.2,0,8-8.5,8.2c-3.2,0-3.7-0.7-3.7-4c0.2-20.2,0-40.2,0.2-60.4c0-3.5-0.5-4.7-4.5-4.7
				c-7.7,0.3-15.5,0.3-23.2,0c-3.2,0-3.7,1-3.7,4C487.1,79.5,487.1,105.9,487.1,132.4z M162.3,120.6c0,22.2,0,44.5,0,66.7
				c0,14.5,9.2,26.5,23,30.5c6.2,1.7,12.7,1.2,19.2,1.2c19.2,0,32.9-13,33.2-32.2c0.2-44.9-0.1-89.9,0.2-134.6c0-2.5-0.8-3-3.2-3
				c-8.2,0.3-16.2,0.3-24.5,0c-3.5,0-4,1-4,4.2c0,42,0,83.7,0.1,125.6c0,1.5,0,3.2-0.2,4.7c-0.5,3.5-2.7,5.2-6.2,5.2
				c-4,0-6-2.5-6-7.5c0-42.7,0-85.4-0.1-127.9c0-3.2-0.5-4.2-4-4.2c-8,0.3-15.7,0.3-23.7,0c-3.2,0-3.7,1-3.7,4
				C162.3,75.6,162.3,98.1,162.3,120.6z M405.5,132.7L405.5,132.7c0,19-0.2,38.2,0.3,57.2c0.3,15.7,14,28.7,29.7,29c5,0,10,0,15,0
				c15.7-0.3,29.7-14,30.2-29.7c0.2-14.2,0-28.5,0.2-42.7c0-2-0.5-2.7-2.5-2.7c-8.7,0-17.5,0.3-26,0c-2.5,0-3,0.8-3,3.2
				c0,11.5,0,23.2,0,34.7c0,2.7-0.7,5.2-3.5,6.5c-4.7,2.5-9.2-1-9.2-7.2c0-32.2,0-64.2-0.1-96.4c0-5.2,2.2-7.7,6.2-8
				c4,0,6.2,2.5,6.2,7.7c0,9,0,18,0,27c0,2,0.3,2.7,2.5,2.7c8.7,0,17.7,0,26.5,0c1.7,0,2.5-0.3,2.5-2.2c0-11.7,0.2-23.5-0.3-35.2
				C479.6,61,467.8,49,452.3,47c-5.5-0.7-11-0.5-16.5-0.2c-18.7,0.5-31.2,16-30.7,32.7C405.7,97.5,405.5,115,405.5,132.7z
				 M10.8,132.7c0,27,0,53.7,0,80.7c0,2.2-0.2,4,3.2,4c19-0.3,38.2,0,57.2,0c2.2,0,2.7-0.8,2.7-3c0-8-0.3-16,0-24c0-2.5-0.8-3.2-3-3
				c-8.5,0.3-17.2,0-25.7,0c-2.5,0-3.2-0.5-3-3c0.2-11,0-22.2,0-33.2c0-2.2,0.5-3,2.7-2.7c6.2,0.2,12.7,0,19,0
				c1.7,0,2.7-0.3,2.7-2.5c-0.3-8.2,0-16.5,0-25c0-2-0.8-2.7-2.7-2.7c-6.2,0-12.7,0-19,0c-2.2,0-3-0.5-3-2.7c0-11,0.2-22.2,0-33.2
				c0-2.5,0.7-3,3-3c8.5,0.2,17.2,0,25.7,0c2.5,0,3.2-0.5,3-3c-0.3-7.7-0.3-15.5,0-23.2c0-3-0.8-3.7-3.7-3.7
				c-18.5,0.3-37.2,0.3-55.7,0c-3.2,0-4,1-4,4C10.8,79.7,10.8,106.2,10.8,132.7z M368.1,216.9c9.5,0,19.2,0,28.7,0
				c2.2,0,3.2-0.3,3.2-3c-0.3-8-0.3-16,0-24c0-2.5-0.5-3.2-3-3c-8.5,0.3-17.2,0-25.7,0c-2.2,0-3.2-0.5-3-3c0.2-11,0-22.2,0-33.2
				c0-2.2,0.5-3,2.7-2.7c6.2,0.2,12.7,0,19,0c1.7,0,2.7-0.3,2.7-2.5c-0.3-8.2,0-16.5,0-25c0-2-0.8-2.7-2.7-2.7c-6.2,0-12.7,0-19,0
				c-2.2,0-3-0.5-3-2.7c0-11,0.2-22.2,0-33.2c0-2.5,0.7-3,3-3c8.7,0.2,17.5,0,26,0c2,0,2.7-0.5,2.7-2.7c0-8.2,0-16.2,0-24.5
				c0-2.2-0.8-2.7-3-2.7c-19,0-38.2,0-57.2,0c-2.5,0-3,0.8-3,3.2c0,53.9,0.1,107.6,0.1,161.6c0,2.5,0.8,3,3.2,3
				C349.6,216.9,358.8,216.9,368.1,216.9z M278.2,148c0,21.7,0,43.5,0,65.2c0,3.2,1,4,4,3.7c5.2-0.3,10.2,0,15.5,0
				c4,0,9,1.7,11.2-0.8c2-2.2,0.5-7.2,0.5-11c0-40.5,0-80.9-0.1-121.1c0-3.7,0.5-5.2,4.5-4.7c4.5,0.5,9,0,13.5,0.2
				c2.2,0,3.2-0.3,3.2-3c-0.3-8-0.3-16,0-24c0-2-0.3-3-2.7-3c-22.7,0-45.2,0-67.9,0c-2.2,0-3,0.8-2.7,3c0,8,0.3,16,0,24
				c0,2.5,1,3,3.2,3c4.7-0.3,9.5,0.2,14.2,0c3-0.3,4,0.7,4,3.7C278.2,104.5,278.2,126.3,278.2,148z"/>
			<path class="st3" d="M284.5,254.1c-30.5,0-61.2,0-91.6,0.1c-28,0-56.2-0.2-84.1-0.2c-32.2,0-64.4,0-96.6,0.1c-3,0-4-0.7-4-3.7
				c0.2-5.5,0.2-11,0-16.5c0-2.2,0.7-3,3-2.7c0.7,0,1.2,0,2,0c181-0.1,361.9-0.2,542.9-0.3c4,0,5,1,4.7,5c-0.2,4.5-0.2,9.2,0,13.7
				c0.3,3.5-0.7,4.5-4.5,4.5c-26.7-0.2-53.2,0-79.9,0c-31.4,0-62.9,0-94.3,0.1c-31,0-61.9,0-92.9,0.1
				C288,254.1,286.2,254.1,284.5,254.1L284.5,254.1z"/>
			<path class="st4" d="M80.5,133.1c0-26.7,0-53.2,0-79.9c0-3,0.5-4,3.7-4c12.7,0.2,25.2,0,37.9,0.2c8.5,0,16.7,1.5,23.5,7.2
				c7.2,6.2,10,14.5,10,23.5c0.3,35.7,0.3,71.4,0.1,107.1c-0.2,17.7-12,29-29.9,29.7c-14.2,0.5-28.5,0-42.7,0.3
				c-3.5,0-2.7-2-2.7-3.7C80.5,186.6,80.5,159.8,80.5,133.1z M111.7,133.1c0,17,0,34,0,50.9c0,1-1,2.5,1.2,3
				c7.5,1.7,11.5-1.3,11.5-9c0-30,0-59.7-0.1-89.6c0-8-1.3-9.2-9.2-9.5c-2.7,0-3.5,0.5-3.5,3.5C111.7,99.4,111.7,116.1,111.7,133.1z
				"/>
			<path class="st5" d="M487.1,132.4c0-26.5,0-52.9,0-79.4c0-3,0.5-4,3.7-4c7.7,0.2,15.5,0.2,23.2,0c4-0.3,4.5,1.2,4.5,4.7
				c-0.2,20.2,0,40.2-0.2,60.4c0,3,0.8,4,3.7,4c8.5-0.3,8.5,0,8.5-8.2c0-19,0-38,0-56.9c0-3,0.7-3.7,3.7-3.7c8.2,0.2,16.5,0.2,25,0
				c2.5,0,3,0.7,3,3c0,53.9,0.1,107.6,0.1,161.6c0,2.2-0.5,3.2-3,3.2c-8.5-0.2-17-0.2-25.2,0c-3,0-3.5-1-3.5-3.7
				c0-20.5,0-41.2,0.2-61.7c0-3.2-0.8-4-4-3.7c-8.5,0.3-8.5,0-8.5,8.2c0,19,0,38.2,0,57.2c0,2.7-0.7,3.5-3.5,3.5c-8-0.2-16-0.2-24,0
				c-3,0-4-0.7-4-3.7C487.1,186.1,487.1,159.4,487.1,132.4z"/>
			<path class="st6" d="M162.3,120.6c0-22.5,0-44.9,0-67.4c0-3,0.5-4,3.7-4c8,0.2,15.7,0.2,23.7,0c3.5,0,4,1,4,4.2
				c0,42.7,0,85.4,0.1,127.9c0,5,2,7.5,6,7.5c3.5,0,5.7-1.5,6.2-5.2c0.2-1.5,0.2-3.2,0.2-4.7c0-42,0-83.7-0.1-125.6
				c0-3.2,0.5-4.2,4-4.2c8.2,0.2,16.2,0.2,24.5,0c2.2,0,3.2,0.5,3.2,3c0,44.9,0.3,89.9-0.2,134.6c0,19.2-14,32.2-33.2,32.2
				c-6.5,0-13,0.8-19.2-1.2c-13.7-4-23-16-23-30.5C162.4,165.3,162.4,143.1,162.3,120.6z"/>
			<path class="st7" d="M405.5,132.7c0-17.7,0.5-35.2,0-52.9c-0.5-16.7,12-32.2,30.7-32.7c5.5-0.3,11-0.3,16.5,0.2
				c15.5,1.7,27.2,13.7,28,29.5c0.5,11.7,0,23.5,0.3,35.2c0,2-1,2.2-2.5,2.2c-8.7,0-17.7,0-26.5,0c-2.2,0-2.5-0.7-2.5-2.7
				c0-9,0-18,0-27c0-5.2-2.3-7.7-6.2-7.7s-6.2,2.8-6.2,8c0,32.2,0,64.2,0.1,96.4c0,6.2,4.5,9.7,9.2,7.2c2.7-1.5,3.5-3.7,3.5-6.5
				c0-11.5,0-23.2,0-34.7c0-2.2,0.5-3.2,3-3.2c8.7,0.2,17.5,0.2,26,0c2.2,0,2.5,0.7,2.5,2.7c0,14.2,0.3,28.5-0.2,42.7
				c-0.2,15.7-14.2,29.5-30.2,29.7c-5,0-10,0-15,0c-15.7-0.2-29.5-13.2-29.7-29C405.2,170.9,405.5,151.7,405.5,132.7L405.5,132.7z"
				/>
			<path class="st5" d="M10.8,132.7c0-26.5,0-52.9,0-79.4c0-3,0.7-4,4-4c18.5,0.2,37.2,0.2,55.7,0c3,0,3.7,0.7,3.7,3.7
				c-0.2,7.7-0.2,15.5,0,23.2c0,2.5-0.7,3-3,3c-8.5-0.2-17.2,0-25.7,0c-2.2,0-3.2,0.5-3,3c0.3,11,0.3,22.2,0,33.2
				c0,2.2,0.8,2.7,3,2.7c6.2-0.3,12.7,0,19,0c2,0,2.7,0.5,2.7,2.7c0,8.2-0.2,16.5,0,25c0,2.2-1,2.5-2.7,2.5c-6.2,0-12.7,0-19,0
				c-2.2,0-2.7,0.8-2.7,2.7c0,11,0.3,22.2,0,33.2c0,2.5,0.8,3,3,3c8.5-0.3,17.2,0,25.7,0c2.5,0,3.2,0.7,3,3c-0.2,8,0,16,0,24
				c0,2.2-0.5,3-2.7,3c-19,0-38.2-0.2-57.2,0c-3.2,0-3.2-1.5-3.2-4C10.9,186.3,10.9,159.6,10.8,132.7z"/>
			<path class="st5" d="M368.1,216.9c-9.2,0-18.7,0-28,0c-2.2,0-3.2-0.5-3.2-3c0-53.9-0.1-107.6-0.1-161.6c0-2.2,0.5-3.2,3-3.2
				c19,0,38.2,0,57.2,0c2.2,0,3,0.5,3,2.7c-0.2,8.2,0,16.2,0,24.5c0,2-0.5,2.7-2.7,2.7c-8.7,0-17.5,0-26,0c-2.2,0-3.2,0.5-3,3
				c0.3,11,0.3,22.2,0,33.2c0,2.2,0.8,2.7,3,2.7c6.2-0.3,12.7,0,19,0c2,0,2.7,0.5,2.7,2.7c0,8.2-0.2,16.5,0,25c0,2.2-1,2.5-2.7,2.5
				c-6.2,0-12.7,0-19,0c-2.2,0-2.7,0.8-2.7,2.7c0,11,0.3,22.2,0,33.2c0,2.5,0.8,3,3,3c8.5-0.3,17.2,0,25.7,0c2.5,0,3.2,0.7,3,3
				c-0.2,8-0.2,16,0,24c0,2.7-1,3-3.2,3C387.3,216.9,377.8,216.9,368.1,216.9z"/>
			<path class="st8" d="M278.2,148c0-21.7,0-43.5,0-65.2c0-3.2-1-4-4-3.7c-4.7,0.3-9.5,0-14.2,0c-2.2,0-3.2-0.5-3.2-3
				c0.2-8,0.2-16,0-24c0-2.2,0.5-3,2.7-3c22.7,0,45.2,0,67.9,0c2.5,0,2.7,0.7,2.7,3c0,8-0.2,16,0,24c0,2.7-1,3-3.2,3
				c-4.5-0.2-9,0.3-13.5-0.2c-4-0.2-4.5,1.3-4.5,4.7c0.3,40.5,0,80.9,0.1,121.1c0,3.7,1.3,9-0.5,11c-2.2,2.5-7.5,0.8-11.2,0.8
				c-5.2,0.3-10.2-0.2-15.5,0c-3,0.3-4-0.5-4-3.7C278.4,191.4,278.2,169.7,278.2,148z"/>
			<path class="st9" d="M111.7,133.1c0-16.7,0-33.7,0-50.4c0-2.7,0.7-3.5,3.5-3.5c8,0.2,9.2,1.2,9.2,9.5c0,30,0,59.7,0.1,89.6
				c0,7.7-4,10.7-11.5,9c-2.2-0.5-1.2-2-1.2-3C111.7,167.1,111.7,150.1,111.7,133.1z"/>
		</g>
	</g>
</g>
</svg>
